<svg xmlns="http://www.w3.org/2000/svg" viewBox="0 0 75 78.63" role="img" aria-label="Fork network logo">
  <defs>
    <style>
      .bg{fill:#0B1F3B;}
      .pin{fill:#1F6FEB;}
      .pin2{fill:#2DD4BF;}
      .line{fill:none;stroke:#E6F0FF;stroke-width:2.2;stroke-linecap:round;stroke-linejoin:round;opacity:.95;}
      .node{fill:#E6F0FF;}
    </style>
  </defs>

  <!-- Background disk -->
  <circle class="bg" cx="37.5" cy="39.3" r="33.5"/>

  <!-- Map pin silhouette -->
  <path class="pin" d="M37.5 13.2c-9.4 0-17 7.6-17 17 0 12.6 15 30.4 16 31.6.5.6 1.5.6 2 0 1-1.2 16-19 16-31.6 0-9.4-7.6-17-17-17z"/>

  <!-- Inner pin highlight -->
  <path class="pin2" d="M37.5 18.6c-6.4 0-11.6 5.2-11.6 11.6 0 8.6 9.7 20.2 11 21.7.3.4.9.4 1.2 0 1.3-1.5 11-13.1 11-21.7 0-6.4-5.2-11.6-11.6-11.6z" opacity=".95"/>

  <!-- Network glyph inside pin -->
  <path class="line" d="M31.8 30.2l11.4-5.8M31.8 30.2l11.4 6.0M43.2 24.4v11.8"/>
  <circle class="node" cx="31.8" cy="30.2" r="2.6"/>
  <circle class="node" cx="43.2" cy="24.4" r="2.6"/>
  <circle class="node" cx="43.2" cy="36.2" r="2.6"/>

  <!-- Small "fork" split at bottom -->
  <path class="line" d="M37.5 61.8v7.6M37.5 69.4l-7.2 4.3M37.5 69.4l7.2 4.3"/>
  <circle class="node" cx="30.3" cy="73.7" r="2.1"/>
  <circle class="node" cx="44.7" cy="73.7" r="2.1"/>
</svg>
